<svg width="16" height="20" viewBox="0 0 16 20" fill="none" xmlns="http://www.w3.org/2000/svg">
<path d="M13.2681 7.62156V5.77366C13.2681 3.14156 10.905 1 8.00061 1C5.09625 1 2.73312 3.14156 2.73312 5.77366V7.62156C1.61345 7.81449 0.757812 8.79029 0.757812 9.96461V16.3982C0.757812 17.7101 1.82547 18.7778 3.13773 18.7778H12.8635C14.1758 18.7778 15.2434 17.7101 15.2434 16.3979V9.96428C15.2434 8.79029 14.3878 7.81449 13.2681 7.62156ZM3.39156 5.77366C3.39156 3.50436 5.45905 1.65844 8.00061 1.65844C10.5422 1.65844 12.6097 3.50436 12.6097 5.77366V7.58436H3.39156V5.77366ZM14.585 16.3979C14.585 17.347 13.8126 18.1193 12.8635 18.1193H3.13773C2.18859 18.1193 1.41625 17.347 1.41625 16.3979V9.96428C1.41625 9.01514 2.18859 8.2428 3.13773 8.2428H12.8635C13.8126 8.2428 14.585 9.01514 14.585 9.96428V16.3979Z" fill="black"/>
<path d="M8.00047 10.218C7.27421 10.218 6.68359 10.8086 6.68359 11.5349V13.5102C6.68359 14.2365 7.27421 14.8271 8.00047 14.8271C8.72672 14.8271 9.31734 14.2365 9.31734 13.5102V11.5349C9.31734 10.8086 8.72672 10.218 8.00047 10.218ZM8.6589 13.5102C8.6589 13.8733 8.36359 14.1686 8.00047 14.1686C7.63734 14.1686 7.34203 13.8733 7.34203 13.5102V11.5349C7.34203 11.1718 7.63734 10.8765 8.00047 10.8765C8.36359 10.8765 8.6589 11.1718 8.6589 11.5349V13.5102Z" fill="black"/>
</svg>
