<svg width="45" height="26" viewBox="0 0 45 26" fill="none" xmlns="http://www.w3.org/2000/svg">
<path d="M33.397 14.084V17H23.641L23.623 14.606L28.123 9.962C28.447 9.638 28.705 9.314 28.897 8.99C29.101 8.654 29.203 8.366 29.203 8.126C29.203 7.838 29.101 7.622 28.897 7.478C28.705 7.322 28.429 7.244 28.069 7.244C27.577 7.244 27.025 7.388 26.413 7.676C25.813 7.952 25.207 8.342 24.595 8.846L23.191 6.146C25.063 4.862 26.875 4.22 28.627 4.22C29.491 4.22 30.259 4.364 30.931 4.652C31.615 4.928 32.149 5.318 32.533 5.822C32.929 6.326 33.127 6.908 33.127 7.568C33.127 8.228 32.911 8.906 32.479 9.602C32.059 10.286 31.453 11.024 30.661 11.816L28.393 14.084H33.397ZM44.3821 11.69V14.426H42.8521V17H39.4321V14.426H33.8881V11.96L37.2181 4.382H40.7461L37.6501 11.69H39.4321V9.134H42.8521V11.69H44.3821Z" fill="url(#paint0_linear_883_169)"/>
<path d="M0.0620001 4.382H9.854V7.262H3.806V9.782H9.422V12.662H3.806V17H0.0620001V4.382ZM16.9305 4.382C18.5625 4.382 19.8225 4.772 20.7105 5.552C21.6105 6.332 22.0605 7.436 22.0605 8.864C22.0605 10.364 21.6105 11.528 20.7105 12.356C19.8225 13.184 18.5625 13.598 16.9305 13.598L14.9505 13.616V17H11.2065V4.382H16.9305ZM16.7505 10.718C17.3145 10.718 17.7465 10.568 18.0465 10.268C18.3585 9.968 18.5145 9.536 18.5145 8.972C18.5145 8.42 18.3585 8 18.0465 7.712C17.7465 7.412 17.3145 7.262 16.7505 7.262H14.9505V10.718H16.7505Z" fill="black"/>
<defs>
<linearGradient id="paint0_linear_883_169" x1="45" y1="26" x2="22.217" y2="26" gradientUnits="userSpaceOnUse">
<stop stop-color="#8EE901"/>
<stop offset="1" stop-color="#4F9C2C"/>
</linearGradient>
</defs>
</svg>
