<svg width="20" height="20" viewBox="0 0 20 20" fill="none" xmlns="http://www.w3.org/2000/svg">
<path d="M19.8246 18.98L14.9643 14.1197C16.268 12.6208 17.0574 10.6652 17.0574 8.52772C17.0574 3.82262 13.2303 0 8.52967 0C3.82457 0 0.00195312 3.82705 0.00195312 8.52772C0.00195312 13.2284 3.829 17.0554 8.52967 17.0554C10.6671 17.0554 12.6228 16.2661 14.1217 14.9623L18.982 19.8226C19.0973 19.9379 19.2525 20 19.4033 20C19.5541 20 19.7093 19.9424 19.8246 19.8226C20.0552 19.592 20.0552 19.2106 19.8246 18.98ZM1.19486 8.52772C1.19486 4.48337 4.48532 1.19734 8.52524 1.19734C12.5696 1.19734 15.8556 4.4878 15.8556 8.52772C15.8556 12.5676 12.5696 15.8625 8.52524 15.8625C4.48532 15.8625 1.19486 12.5721 1.19486 8.52772Z" fill="black"/>
</svg>
