<svg width="20" height="20" viewBox="0 0 20 20" fill="none" xmlns="http://www.w3.org/2000/svg">
<g clip-path="url(#clip0_943_1995)">
<path d="M14.6259 12.9868C14.61 12.9851 12.3078 13.053 11.9655 10.5859C12.3458 10.3205 12.6964 9.97602 13.0052 9.55797C13.606 8.74469 13.9931 7.72445 14.131 6.6209C14.1784 6.57805 14.2176 6.52473 14.244 6.46187C14.4935 5.86754 14.62 5.23293 14.62 4.57559C14.62 2.05262 12.7168 0 10.3774 0C9.76555 0 9.17195 0.140937 8.61133 0.419258C8.39746 0.435586 8.18789 0.473203 7.98691 0.53125C7.02609 0.808867 6.24422 1.52125 5.78527 2.53727C5.33973 3.52375 5.25191 4.68504 5.53809 5.80727C5.59855 6.04434 5.67543 6.2773 5.7666 6.49988C5.79129 6.56008 5.82809 6.61145 5.87227 6.65371C6.09562 8.37617 6.9152 9.80332 8.0327 10.5825C7.68934 13.0538 5.38793 12.9852 5.37207 12.9869C3.71652 13.0431 2.38672 14.4065 2.38672 16.0755V19.5497C2.38672 19.7984 2.58832 20 2.83703 20H6.79137H13.2065H17.1609C17.4096 20 17.6112 19.7984 17.6112 19.5497V16.0755C17.6112 14.4064 16.2815 13.043 14.6259 12.9868ZM8.23695 1.39652C8.40129 1.34902 8.57484 1.32086 8.75281 1.31285C8.81887 1.30988 8.88344 1.29242 8.94199 1.26164C9.39789 1.02211 9.88086 0.900664 10.3774 0.900664C12.2202 0.900664 13.7194 2.54922 13.7194 4.57559C13.7194 4.63641 13.7177 4.69691 13.715 4.75719C13.3576 4.39422 12.861 4.16863 12.3126 4.16863H9.2434C9.06078 4.16863 8.88746 4.11129 8.74211 4.00277C8.61801 3.91016 8.52207 3.78566 8.46477 3.64277C8.37602 3.42176 8.15719 3.28352 7.91898 3.29848C7.67992 3.31371 7.47875 3.47973 7.41836 3.71172C7.24051 4.39516 6.88586 5.02469 6.3993 5.5352C5.94656 3.67195 6.76363 1.82219 8.23695 1.39652ZM7.84516 9.18516C7.25918 8.4693 6.87543 7.50262 6.75379 6.4443C7.32203 5.93785 7.77125 5.30762 8.06371 4.60855C8.10809 4.64949 8.15469 4.6882 8.20336 4.72457C8.50555 4.95008 8.86516 5.06934 9.24344 5.06934H12.3126C12.7469 5.06934 13.1212 5.3298 13.2882 5.70258C13.2882 5.70578 13.2877 5.70883 13.2877 5.71203C13.2877 8.25414 11.8127 10.3223 9.99965 10.3223C9.21059 10.3223 8.44539 9.91848 7.84516 9.18516ZM8.87988 11.0247C9.23688 11.1539 9.61238 11.223 9.99965 11.223C10.3838 11.223 10.7592 11.1561 11.1185 11.0271C11.2834 11.8861 11.761 12.6348 12.4282 13.1503L10.0635 16.5178C10.0481 16.5398 10.0266 16.5509 9.99977 16.5509C9.97293 16.5509 9.95148 16.5397 9.93609 16.5178L7.57086 13.1495C8.23805 12.6335 8.71551 11.8843 8.87988 11.0247ZM16.7105 19.0993H13.2065H6.79137H3.28734V16.0754C3.28734 14.8675 4.27004 13.8848 5.47793 13.8848C5.49434 13.8848 6.21898 13.8672 6.79156 13.607L9.19895 17.0354C9.38191 17.296 9.68129 17.4516 9.99973 17.4516C9.99973 17.4516 9.99973 17.4516 9.99977 17.4516C10.3182 17.4516 10.6176 17.296 10.8005 17.0354L13.2075 13.6075C13.8605 13.8848 14.5036 13.8848 14.52 13.8848C15.7279 13.8848 16.7105 14.8675 16.7105 16.0754V19.0993Z" fill="black"/>
</g>
<defs>
<clipPath id="clip0_943_1995">
<rect width="20" height="20" fill="white"/>
</clipPath>
</defs>
</svg>
