<svg width="48" height="48" viewBox="0 0 48 48" fill="none" xmlns="http://www.w3.org/2000/svg">
<g clip-path="url(#clip0_862_14)">
<path d="M48.0002 24.0001C48.0002 31.9239 41.6002 38.4001 33.6002 38.4001C25.6764 38.4001 19.2002 31.9239 19.2002 24.0001C19.2002 16.0763 25.6002 9.6001 33.524 9.6001C41.6002 9.6001 48.0002 16.0763 48.0002 24.0001Z" fill="#FFB600"/>
<path d="M33.6002 9.6001C41.524 9.6001 48.0002 16.0763 48.0002 24.0001C48.0002 31.9239 41.6002 38.4001 33.6002 38.4001C25.6764 38.4001 19.2002 31.9239 19.2002 24.0001" fill="#F7981D"/>
<path d="M33.5996 9.6001C41.5234 9.6001 47.9996 16.0763 47.9996 24.0001C47.9996 31.9239 41.5996 38.4001 33.5996 38.4001" fill="#FF8500"/>
<path d="M14.2476 9.6001C6.4 9.67629 0 16.0763 0 24.0001C0 31.9239 6.4 38.4001 14.4 38.4001C18.1333 38.4001 21.4857 36.9525 24.0762 34.6668C24.6095 34.2096 25.0667 33.6763 25.5238 33.143H22.5524C22.1714 32.6858 21.7905 32.1525 21.4857 31.6953H26.5905C26.8952 31.2382 27.2 30.7049 27.4286 30.1715H20.6476C20.419 29.7144 20.1905 29.181 20.0381 28.6477H27.9619C28.419 27.2001 28.7238 25.6763 28.7238 24.0763C28.7238 23.0096 28.5714 22.0191 28.419 21.0287H19.581C19.6571 20.4953 19.8095 20.0382 19.9619 19.5049H27.8857C27.7333 18.9715 27.5048 18.4382 27.2762 17.981H20.5714C20.8 17.4477 21.1048 16.9906 21.4095 16.4572H26.5143C26.2095 15.9239 25.8286 15.3906 25.3714 14.9334H22.5524C23.0095 14.4001 23.4667 13.943 24 13.4858C21.4857 11.1239 18.0571 9.75248 14.3238 9.75248C14.3238 9.6001 14.3238 9.6001 14.2476 9.6001Z" fill="#FF5050"/>
<path d="M0 24.0001C0 31.9239 6.4 38.4001 14.4 38.4001C18.1333 38.4001 21.4857 36.9524 24.0762 34.6667C24.6095 34.2096 25.0667 33.6762 25.5238 33.1429H22.5524C22.1714 32.6858 21.7905 32.1524 21.4857 31.6953H26.5905C26.8952 31.2381 27.2 30.7048 27.4286 30.1715H20.6476C20.419 29.7143 20.1905 29.181 20.0381 28.6477H27.9619C28.419 27.2001 28.7238 25.6762 28.7238 24.0762C28.7238 23.0096 28.5714 22.0191 28.419 21.0286H19.581C19.6571 20.4953 19.8095 20.0382 19.9619 19.5048H27.8857C27.7333 18.9715 27.5048 18.4382 27.2762 17.981H20.5714C20.8 17.4477 21.1048 16.9905 21.4095 16.4572H26.5143C26.2095 15.9239 25.8286 15.3905 25.3714 14.9334H22.5524C23.0095 14.4001 23.4667 13.9429 24 13.4858C21.4857 11.1239 18.0571 9.75244 14.3238 9.75244H14.2476" fill="#E52836"/>
<path d="M14.3995 38.4001C18.1328 38.4001 21.4852 36.9524 24.0756 34.6667C24.609 34.2096 25.0661 33.6762 25.5233 33.1429H22.5518C22.1709 32.6858 21.7899 32.1524 21.4852 31.6953H26.5899C26.8947 31.2381 27.1995 30.7048 27.428 30.1715H20.6471C20.4185 29.7143 20.1899 29.181 20.0375 28.6477H27.9614C28.4185 27.2001 28.7233 25.6762 28.7233 24.0762C28.7233 23.0096 28.5709 22.0191 28.4185 21.0286H19.5804C19.6566 20.4953 19.809 20.0382 19.9614 19.5048H27.8852C27.7328 18.9715 27.5042 18.4382 27.2756 17.981H20.5709C20.7995 17.4477 21.1042 16.9905 21.409 16.4572H26.5137C26.209 15.9239 25.828 15.3905 25.3709 14.9334H22.5518C23.009 14.4001 23.4661 13.9429 23.9995 13.4858C21.4852 11.1239 18.0566 9.75244 14.3233 9.75244H14.2471" fill="#CB2026"/>
<path d="M19.5054 27.6569L19.734 26.3617C19.6578 26.3617 19.5054 26.4379 19.353 26.4379C18.8197 26.4379 18.7435 26.1331 18.8197 25.9807L19.2768 23.3141H20.1149L20.3435 21.8664H19.5816L19.734 20.9521H18.2102C18.2102 20.9521 17.2959 25.9807 17.2959 26.5902C17.2959 27.5045 17.8292 27.8855 18.5149 27.8855C18.9721 27.8855 19.353 27.7331 19.5054 27.6569Z" fill="white"/>
<path d="M20.0391 25.219C20.0391 27.3523 21.4867 27.8856 22.7057 27.8856C23.8486 27.8856 24.3057 27.6571 24.3057 27.6571L24.6105 26.2094C24.6105 26.2094 23.7724 26.5904 23.0105 26.5904C21.3343 26.5904 21.6391 25.3714 21.6391 25.3714H24.7629C24.7629 25.3714 24.9914 24.3809 24.9914 23.9999C24.9914 23.0094 24.4581 21.7904 22.7819 21.7904C21.1819 21.638 20.0391 23.3142 20.0391 25.219ZM22.7057 23.0095C23.5438 23.0095 23.3914 23.9999 23.3914 24.0761H21.7153C21.7153 23.9999 21.8676 23.0095 22.7057 23.0095Z" fill="white"/>
<path d="M32.3809 27.6571L32.6857 25.9809C32.6857 25.9809 31.9238 26.3618 31.3904 26.3618C30.3238 26.3618 29.8666 25.5237 29.8666 24.6095C29.8666 22.7809 30.7809 21.7904 31.8476 21.7904C32.6095 21.7904 33.219 22.2476 33.219 22.2476L33.4476 20.6476C33.4476 20.6476 32.5333 20.2666 31.6952 20.2666C29.9428 20.2666 28.1904 21.7904 28.1904 24.6856C28.1904 26.5904 29.1047 27.8856 30.9333 27.8856C31.5428 27.8856 32.3809 27.6571 32.3809 27.6571Z" fill="white"/>
<path d="M11.1247 21.6382C10.0581 21.6382 9.29616 21.9429 9.29616 21.9429L9.06759 23.2382C9.06759 23.2382 9.7533 22.9334 10.7438 22.9334C11.2771 22.9334 11.7343 23.0096 11.7343 23.4668C11.7343 23.7715 11.6581 23.8477 11.6581 23.8477C11.6581 23.8477 11.2009 23.8477 10.9723 23.8477C9.67711 23.8477 8.22949 24.381 8.22949 26.1334C8.22949 27.5049 9.14378 27.8096 9.67711 27.8096C10.7438 27.8096 11.2009 27.1239 11.2771 27.1239L11.2009 27.7334H12.5724L13.1819 23.5429C13.1819 21.7144 11.6581 21.6382 11.1247 21.6382ZM11.4295 25.0668C11.4295 25.2953 11.2771 26.5144 10.3628 26.5144C9.90568 26.5144 9.7533 26.1334 9.7533 25.9049C9.7533 25.5239 9.98187 24.9906 11.1247 24.9906C11.3533 25.0668 11.4295 25.0668 11.4295 25.0668Z" fill="white"/>
<path d="M14.6293 27.8096C15.0103 27.8096 16.915 27.8858 16.915 25.8287C16.915 23.9239 15.0865 24.3049 15.0865 23.543C15.0865 23.162 15.3912 23.0096 15.9246 23.0096C16.1531 23.0096 16.9912 23.0858 16.9912 23.0858L17.2198 21.7144C17.2198 21.7144 16.6865 21.562 15.7722 21.562C14.6293 21.562 13.4865 22.0192 13.4865 23.543C13.4865 25.2953 15.3912 25.143 15.3912 25.8287C15.3912 26.2858 14.8579 26.362 14.477 26.362C13.7912 26.362 13.1055 26.1334 13.1055 26.1334L12.877 27.5049C12.9531 27.6572 13.3341 27.8096 14.6293 27.8096Z" fill="white"/>
<path d="M45.0294 20.4189L44.7246 22.4761C44.7246 22.4761 44.1151 21.7142 43.277 21.7142C41.9056 21.7142 40.6865 23.3904 40.6865 25.3713C40.6865 26.5904 41.296 27.8856 42.5913 27.8856C43.5056 27.8856 44.0389 27.2761 44.0389 27.2761L43.9627 27.8094H45.4865L46.6294 20.4951L45.0294 20.4189ZM44.3437 24.457C44.3437 25.2951 43.9627 26.3618 43.1246 26.3618C42.5913 26.3618 42.2865 25.9047 42.2865 25.1428C42.2865 23.9237 42.8199 23.1618 43.5056 23.1618C44.0389 23.1618 44.3437 23.5428 44.3437 24.457Z" fill="white"/>
<path d="M2.81969 27.7332L3.73397 22.2475L3.88636 27.7332H4.95302L6.93397 22.2475L6.09588 27.7332H7.69588L8.91493 20.4189H6.40064L4.87683 24.9142L4.80064 20.4189H2.59112L1.37207 27.7332H2.81969Z" fill="white"/>
<path d="M26.4369 27.7334C26.8941 25.2191 26.9703 23.162 28.0369 23.5429C28.1893 22.5524 28.4179 22.1715 28.5703 21.7905C28.5703 21.7905 28.4941 21.7905 28.2655 21.7905C27.5798 21.7905 27.0465 22.7048 27.0465 22.7048L27.1988 21.8667H25.7512L24.7607 27.8096H26.4369V27.7334Z" fill="white"/>
<path d="M35.8864 21.6382C34.8198 21.6382 34.0579 21.9429 34.0579 21.9429L33.8293 23.2382C33.8293 23.2382 34.515 22.9334 35.5055 22.9334C36.0388 22.9334 36.496 23.0096 36.496 23.4668C36.496 23.7715 36.4198 23.8477 36.4198 23.8477C36.4198 23.8477 35.9626 23.8477 35.7341 23.8477C34.4388 23.8477 32.9912 24.381 32.9912 26.1334C32.9912 27.5049 33.9055 27.8096 34.4388 27.8096C35.5055 27.8096 35.9626 27.1239 36.0388 27.1239L35.9626 27.7334H37.3341L37.9436 23.5429C38.0198 21.7144 36.4198 21.6382 35.8864 21.6382ZM36.2674 25.0668C36.2674 25.2953 36.115 26.5144 35.2007 26.5144C34.7436 26.5144 34.5912 26.1334 34.5912 25.9049C34.5912 25.5239 34.8198 24.9906 35.9626 24.9906C36.1912 25.0668 36.1912 25.0668 36.2674 25.0668Z" fill="white"/>
<path d="M39.2377 27.7334C39.6949 25.2191 39.7711 23.162 40.8377 23.5429C40.9901 22.5524 41.2187 22.1715 41.3711 21.7905C41.3711 21.7905 41.2949 21.7905 41.0663 21.7905C40.3806 21.7905 39.8472 22.7048 39.8472 22.7048L39.9996 21.8667H38.552L37.5615 27.8096H39.2377V27.7334Z" fill="white"/>
<path d="M17.1436 26.5902C17.1436 27.5045 17.6769 27.8855 18.3626 27.8855C18.8959 27.8855 19.3531 27.7331 19.5055 27.6569L19.734 26.3617C19.6578 26.3617 19.5055 26.4379 19.3531 26.4379C18.8197 26.4379 18.7436 26.1331 18.8197 25.9807L19.2769 23.3141H20.115L20.3436 21.8664H19.5817L19.734 20.9521" fill="#DCE5E5"/>
<path d="M20.8008 25.219C20.8008 27.3523 21.4865 27.8856 22.7055 27.8856C23.8484 27.8856 24.3055 27.6571 24.3055 27.6571L24.6103 26.2094C24.6103 26.2094 23.7722 26.5904 23.0103 26.5904C21.3341 26.5904 21.6389 25.3714 21.6389 25.3714H24.7627C24.7627 25.3714 24.9913 24.3809 24.9913 23.9999C24.9913 23.0094 24.4579 21.7904 22.7817 21.7904C21.1817 21.638 20.8008 23.3142 20.8008 25.219ZM22.7055 23.0095C23.5436 23.0095 23.696 23.9999 23.696 24.0761H21.7151C21.7151 23.9999 21.8674 23.0095 22.7055 23.0095Z" fill="#DCE5E5"/>
<path d="M32.3817 27.6571L32.6865 25.9809C32.6865 25.9809 31.9246 26.3618 31.3912 26.3618C30.3246 26.3618 29.8674 25.5237 29.8674 24.6095C29.8674 22.7809 30.7817 21.7904 31.8484 21.7904C32.6103 21.7904 33.2198 22.2476 33.2198 22.2476L33.4484 20.6476C33.4484 20.6476 32.5341 20.2666 31.696 20.2666C29.9436 20.2666 28.9531 21.7904 28.9531 24.6856C28.9531 26.5904 29.1055 27.8856 30.9341 27.8856C31.5436 27.8856 32.3817 27.6571 32.3817 27.6571Z" fill="#DCE5E5"/>
<path d="M9.06759 23.3143C9.06759 23.3143 9.7533 23.0096 10.7438 23.0096C11.2771 23.0096 11.7343 23.0858 11.7343 23.5429C11.7343 23.8477 11.6581 23.9239 11.6581 23.9239C11.6581 23.9239 11.2009 23.9239 10.9723 23.9239C9.67711 23.9239 8.22949 24.4572 8.22949 26.2096C8.22949 27.581 9.14378 27.8858 9.67711 27.8858C10.7438 27.8858 11.2009 27.2001 11.2771 27.2001L11.2009 27.8096H12.5724L13.1819 23.6191C13.1819 21.8667 11.6581 21.7905 11.0485 21.7905L9.06759 23.3143ZM12.1914 25.0667C12.1914 25.2953 11.2771 26.5143 10.3628 26.5143C9.90568 26.5143 9.7533 26.1334 9.7533 25.9048C9.7533 25.5239 9.98187 24.9905 11.1247 24.9905C11.3533 25.0667 12.1914 25.0667 12.1914 25.0667Z" fill="#DCE5E5"/>
<path d="M12.9512 27.6572C12.9512 27.6572 13.4083 27.8096 14.7036 27.8096C15.0845 27.8096 16.9893 27.8858 16.9893 25.8287C16.9893 23.9239 15.1607 24.3049 15.1607 23.543C15.1607 23.162 15.4655 23.0096 15.9988 23.0096C16.2274 23.0096 17.0655 23.0858 17.0655 23.0858L17.294 21.7144C17.294 21.7144 16.7607 21.562 15.8464 21.562C14.7036 21.562 14.3226 22.0192 14.3226 23.543C14.3226 25.2953 15.4655 25.143 15.4655 25.8287C15.4655 26.2858 14.9321 26.362 14.5512 26.362" fill="#DCE5E5"/>
<path d="M44.7241 22.4761C44.7241 22.4761 44.1146 21.7142 43.2765 21.7142C41.9051 21.7142 41.4479 23.3904 41.4479 25.3713C41.4479 26.5903 41.2955 27.8856 42.5908 27.8856C43.5051 27.8856 44.0384 27.2761 44.0384 27.2761L43.9622 27.8094H45.486L46.6289 20.4951L44.7241 22.4761ZM44.6479 24.457C44.6479 25.2951 43.9622 26.3618 43.1241 26.3618C42.5908 26.3618 42.286 25.9046 42.286 25.1427C42.286 23.9237 42.8193 23.1618 43.5051 23.1618C44.0384 23.1618 44.6479 23.5427 44.6479 24.457Z" fill="#DCE5E5"/>
<path d="M2.81969 27.7332L3.73397 22.2475L3.88636 27.7332H4.95302L6.93397 22.2475L6.09588 27.7332H7.69588L8.91493 20.4189H7.01016L4.87683 24.9142L4.80064 20.4189H3.96255L1.37207 27.7332H2.81969Z" fill="#DCE5E5"/>
<path d="M24.8389 27.7334H26.4389C26.896 25.2191 26.9722 23.162 28.0389 23.5429C28.1912 22.5524 28.4198 22.1715 28.5722 21.7905C28.5722 21.7905 28.496 21.7905 28.2674 21.7905C27.5817 21.7905 27.0484 22.7048 27.0484 22.7048L27.2008 21.8667" fill="#DCE5E5"/>
<path d="M33.8293 23.3143C33.8293 23.3143 34.515 23.0096 35.5055 23.0096C36.0388 23.0096 36.496 23.0858 36.496 23.5429C36.496 23.8477 36.4198 23.9239 36.4198 23.9239C36.4198 23.9239 35.9626 23.9239 35.7341 23.9239C34.4388 23.9239 32.9912 24.4572 32.9912 26.2096C32.9912 27.581 33.9055 27.8858 34.4388 27.8858C35.5055 27.8858 35.9626 27.2001 36.0388 27.2001L35.9626 27.8096H37.3341L37.9436 23.6191C37.9436 21.8667 36.4198 21.7905 35.8103 21.7905L33.8293 23.3143ZM36.9531 25.0667C36.9531 25.2953 36.0388 26.5143 35.1245 26.5143C34.6674 26.5143 34.515 26.1334 34.515 25.9048C34.515 25.5239 34.7436 24.9905 35.8865 24.9905C36.1912 25.0667 36.9531 25.0667 36.9531 25.0667Z" fill="#DCE5E5"/>
<path d="M37.6387 27.7334H39.2387C39.6958 25.2191 39.772 23.162 40.8387 23.5429C40.991 22.5524 41.2196 22.1715 41.372 21.7905C41.372 21.7905 41.2958 21.7905 41.0672 21.7905C40.3815 21.7905 39.8482 22.7048 39.8482 22.7048L40.0006 21.8667" fill="#DCE5E5"/>
</g>
<defs>
<clipPath id="clip0_862_14">
<rect width="48" height="48" fill="white"/>
</clipPath>
</defs>
</svg>
