<svg width="116" height="14" viewBox="0 0 116 14" fill="none" xmlns="http://www.w3.org/2000/svg">
<g clip-path="url(#clip0_862_9)">
<path d="M1.15635 0.170483C0.705981 0.377408 0.304302 0.803432 0.133893 1.2538C0.0486884 1.48507 0 3.6517 0 7.6198L0 13.6328H2.79958L2.79958 9.85946H6.52424L7.49801 11.7461L8.4596 13.6328H10.0785C10.9549 13.6328 11.6852 13.5963 11.6852 13.5598C11.6852 13.5111 11.1861 12.513 10.5654 11.3445L9.45771 9.20217L9.74984 9.01959C11.3931 7.93628 12.1234 5.80616 11.6852 3.37174C11.4052 1.88675 10.6871 0.839948 9.57943 0.353064C8.95866 0.0731058 8.84911 0.0609341 5.234 0.0365896C2.3127 0.0122452 1.44848 0.0365896 1.15635 0.170483ZM8.21616 2.92137C8.41091 2.99441 8.60567 3.2135 8.71521 3.49346C8.94648 4.04121 8.97083 5.441 8.7639 5.85485C8.2405 6.86513 7.59538 7.05988 4.84449 7.05988L2.79958 7.05988L2.79958 2.79965H5.34355C6.74334 2.79965 8.03358 2.84834 8.21616 2.92137ZM15.8237 0.109622C14.6187 0.474785 13.7545 1.339 13.3893 2.5197C13.0972 3.46912 12.7807 5.70878 12.7807 6.7921C12.7807 7.8389 13.0728 9.96901 13.3284 10.8332C13.7788 12.3304 14.5456 13.0972 15.9576 13.4624C16.5662 13.6206 17.2113 13.645 19.2806 13.6085C21.6541 13.572 21.8976 13.5354 22.494 13.2798C24.2103 12.513 24.9528 10.5654 24.9528 6.81644C24.9406 2.87269 24.1738 0.925153 22.3601 0.255688C21.715 0.0244179 21.435 7.34329e-05 18.8911 0.0122461C17.3696 0.0122461 15.9941 0.0609341 15.8237 0.109622ZM21.4837 3.07961C22.2993 4.19944 22.2871 9.7134 21.4594 10.5289C21.2159 10.7845 16.5297 10.7967 16.3228 10.5533C15.7507 9.85946 15.5438 5.85485 15.982 3.98035C16.1645 3.23785 16.2619 3.00658 16.4688 2.92137C16.6149 2.86051 17.7712 2.824 19.025 2.83617C21.0821 2.86051 21.3377 2.88486 21.4837 3.07961ZM27.582 0.267859C27.3142 0.426097 26.9855 0.742571 26.8516 0.97384C26.6082 1.38769 26.596 1.60679 26.5595 6.47562C26.5352 9.87164 26.5717 11.7096 26.6569 12.0504C26.8638 12.8051 27.3994 13.3529 28.1297 13.4989C28.8844 13.6693 34.2523 13.6693 35.2138 13.5111C37.0883 13.2068 38.0499 12.1113 38.1838 10.1029C38.269 8.9709 38.0865 8.13103 37.6118 7.37636L37.2588 6.82861L37.7091 5.95222C38.1473 5.11235 38.1595 5.02715 38.1595 3.84645C38.1595 2.83617 38.0986 2.50752 37.8795 2.00847C37.5265 1.24163 37.1005 0.79126 36.3337 0.389581L35.7251 0.0609331L31.8909 0.0244179C28.0932 7.34329e-05 28.0567 7.34329e-05 27.582 0.267859ZM35.1165 2.94572C35.2869 3.11613 35.3964 3.93166 35.2869 4.30899C35.226 4.52809 35.0313 4.83239 34.8609 5.0028C34.5566 5.29493 34.5079 5.29493 32.0004 5.33145L29.4565 5.36796V2.78748L32.2439 2.824C33.7775 2.84834 35.0678 2.89703 35.1165 2.94572ZM34.5809 8.37447C35.0678 8.56922 35.3356 9.09262 35.3234 9.78643C35.3112 10.2246 35.2504 10.4437 35.1043 10.5533C34.9461 10.675 34.1792 10.7115 32.1708 10.7115H29.4565V8.13103L31.8665 8.17972C33.1811 8.21623 34.4105 8.30144 34.5809 8.37447ZM42.2615 0.255688C41.0808 0.718227 40.4844 1.54593 40.0218 3.37174C39.7906 4.29682 39.754 4.7837 39.754 6.81644C39.754 9.03176 39.7784 9.2752 40.0827 10.4072C40.46 11.7827 40.813 12.3791 41.519 12.9025C42.3954 13.5233 42.6632 13.572 45.767 13.572C48.8709 13.572 49.1387 13.5233 50.0151 12.9025C50.7211 12.3791 51.0741 11.7827 51.4514 10.4072C51.7557 9.2752 51.7801 9.03176 51.7801 6.81644C51.7801 4.7837 51.7435 4.29682 51.5123 3.37174C51.0497 1.52158 50.4533 0.706055 49.2361 0.255688C48.6153 0.0244179 48.311 7.34329e-05 45.7305 0.0122461C43.1866 0.0122461 42.8457 0.0365896 42.2615 0.255688ZM48.1284 2.92137C48.4571 3.0431 48.6031 3.42043 48.8344 4.79588C49.1265 6.4878 48.8709 9.67688 48.384 10.4194C48.2015 10.7115 48.1893 10.7115 45.767 10.7115C42.9188 10.7115 43.0892 10.7967 42.7727 9.17783C42.3223 6.93816 42.6875 3.20133 43.3691 2.92137C43.7343 2.77531 47.7389 2.77531 48.1284 2.92137Z" fill="#276EB8"/>
<path d="M54.057 0.377289L53.6797 0.754623V12.805L54.0327 13.158C54.3492 13.4623 54.483 13.511 55.1038 13.511C55.7003 13.511 55.8707 13.4623 56.0898 13.231C56.5158 12.7806 56.601 12.2572 56.601 10.1393V8.15525H58.3903L59.291 8.93427C61.0925 10.4801 61.7133 11.3078 61.7133 12.1355C61.7133 12.5981 61.7741 12.7441 62.1271 13.0971C62.4923 13.4623 62.614 13.511 63.1617 13.511C63.673 13.511 63.8434 13.4501 64.172 13.158C64.5615 12.8172 64.5737 12.7685 64.5615 11.8799C64.5494 11.1131 64.4885 10.8331 64.172 10.188C63.746 9.33595 62.5045 7.81444 61.7254 7.19366L61.2142 6.79198L62.0054 6.07383C62.9548 5.19744 63.8312 4.06543 64.2451 3.17687C64.4763 2.66564 64.5494 2.30048 64.5615 1.61884C64.5737 0.742451 64.5615 0.693764 64.172 0.352945C63.819 0.0364704 63.6851 -4.57764e-05 63.0035 -4.57764e-05C62.2975 -4.57764e-05 62.188 0.0364704 61.9689 0.316428C61.7985 0.535526 61.7133 0.815484 61.7133 1.18065C61.7133 1.47278 61.6402 1.88663 61.5429 2.10573C61.3359 2.61695 60.4109 3.62724 59.291 4.58883L58.3903 5.35567H56.601V3.37162C56.601 2.28831 56.5401 1.19282 56.4793 0.949376C56.2967 0.292084 55.8585 -4.57764e-05 55.0673 -4.57764e-05C54.5196 -4.57764e-05 54.3735 0.0486422 54.057 0.377289ZM69.5521 0.170363C67.9089 0.693764 67.0081 1.86228 66.3752 4.24801C66.083 5.31916 66.0587 5.68432 66.01 8.77603C65.937 12.4277 65.9857 12.8293 66.5456 13.2675C66.9473 13.584 67.9819 13.5962 68.3592 13.2919C68.7974 12.9389 68.8948 12.5981 68.8948 11.3322V10.1028L75.2243 10.1028V11.4539C75.2243 12.7806 75.2243 12.805 75.5773 13.158C75.8938 13.4623 76.0276 13.511 76.6241 13.511C77.2449 13.511 77.3544 13.4745 77.683 13.1215L78.036 12.732L77.9995 8.83689C77.9508 5.23395 77.9265 4.85662 77.683 4.04109C77.0988 2.1179 76.2467 0.912861 75.1026 0.377289C74.4696 0.0851583 74.2992 0.0608139 72.2421 0.0364695C70.6841 0.012126 69.9051 0.0486431 69.5521 0.170363ZM73.7515 2.93343C74.4209 3.1647 74.993 4.63752 75.1513 6.4755L75.2121 7.30321L68.8583 7.30321L68.9435 6.32944C69.0896 4.61318 69.759 3.00646 70.3798 2.88474C70.9762 2.77519 73.3863 2.81171 73.7515 2.93343ZM81.8581 0.170363C80.6652 0.547698 79.9957 1.13196 79.5819 2.19093C79.375 2.7265 79.3141 3.11601 79.3141 4.0776C79.3141 6.02514 79.8984 7.1328 81.2738 7.80226C81.8216 8.07005 82.0407 8.09439 84.4386 8.15525C86.9217 8.21611 87.0312 8.22829 87.299 8.49607C87.652 8.84906 87.6885 9.88369 87.3599 10.3827L87.1529 10.7114H83.8786C80.7869 10.7114 80.5922 10.7236 80.3 10.9548C79.6184 11.4904 79.5941 12.6589 80.2392 13.2067L80.6043 13.511H84.1464C86.1183 13.511 87.8954 13.4501 88.1389 13.3893C88.8083 13.2067 89.5265 12.5007 89.9769 11.5878C90.3542 10.8209 90.3785 10.7114 90.3785 9.43332C90.3785 8.24046 90.342 8.02136 90.0621 7.42493C89.6604 6.57288 89.1126 5.93993 88.5162 5.6478C88.1267 5.45305 87.6763 5.40436 85.2906 5.35567C82.065 5.28264 82.1624 5.33133 82.1624 4.0776C82.1624 2.81171 81.9798 2.87257 85.8627 2.79953L89.2222 2.73867L89.5508 2.41003C89.843 2.1179 89.8795 1.97183 89.9282 1.04675L89.989 -4.57764e-05L86.167 0.012126C83.4404 0.012126 82.2111 0.0608149 81.8581 0.170363ZM93.9084 0.170363C93.6407 0.255569 93.2633 0.413805 93.0564 0.511182C91.4862 1.33888 90.8289 4.11412 91.7296 6.086C92.107 6.9137 92.5208 7.3519 93.2998 7.76575C93.8841 8.08222 93.9815 8.09439 96.3429 8.13091C97.6818 8.14308 98.9233 8.22829 99.1059 8.28915C99.5319 8.45956 99.7389 9.08033 99.6293 9.81066C99.4954 10.7357 99.5928 10.7114 95.9047 10.7114H92.606L92.253 11.0644C91.9487 11.3809 91.9 11.5147 91.9 12.1112C91.9 12.7076 91.9487 12.8415 92.253 13.158L92.606 13.511H96.282C100.372 13.511 100.469 13.4988 101.321 12.6833C102.064 11.9651 102.405 11.1131 102.465 9.71328C102.538 8.09439 102.234 7.14497 101.333 6.25641C100.932 5.85473 100.53 5.57477 100.226 5.48957C99.958 5.41653 98.7408 5.35567 97.487 5.35567C96.2333 5.35567 95.0526 5.31916 94.8457 5.28264C94.4075 5.19744 94.2127 4.8201 94.2127 4.0776C94.2127 3.33511 94.4075 2.95777 94.8457 2.87257C95.0526 2.83605 96.5254 2.79953 98.1322 2.79953C101.918 2.79953 102.003 2.75085 102.003 0.912861V-4.57764e-05L98.2052 0.012126C95.4908 0.012126 94.2493 0.0608149 93.9084 0.170363ZM107.249 0.243396C106.896 0.365117 106.409 0.62073 106.178 0.803311C105.204 1.54581 104.328 3.49334 104.084 5.47739C103.902 6.86501 103.914 12.2694 104.084 12.7685C104.255 13.2432 104.742 13.511 105.46 13.511C105.898 13.511 106.093 13.4379 106.409 13.158L106.811 12.805L106.847 11.4539L106.896 10.1028H113.055L113.104 11.4539L113.14 12.805L113.542 13.158C113.858 13.4501 114.041 13.511 114.54 13.511C115.039 13.511 115.222 13.4501 115.538 13.158L115.94 12.805L115.928 8.98296C115.916 5.48957 115.903 5.10006 115.66 4.22367C115.112 2.21527 114.297 0.998066 113.116 0.413805C112.422 0.0729866 112.361 0.0608139 110.158 0.0364695C108.174 -4.673e-05 107.833 0.0242987 107.249 0.243396ZM112.118 3.28642C112.605 3.85851 112.97 5.07572 113.043 6.29292L113.116 7.30321L106.872 7.30321V6.56071C106.872 5.01485 107.553 3.21339 108.235 2.92126C108.393 2.8604 109.245 2.82388 110.146 2.83605L111.765 2.8604L112.118 3.28642Z" fill="#D61E2F"/>
</g>
<defs>
<clipPath id="clip0_862_9">
<rect width="116" height="13.6327" fill="white"/>
</clipPath>
</defs>
</svg>
