<svg width="48" height="48" viewBox="0 0 48 48" fill="none" xmlns="http://www.w3.org/2000/svg">
<g clip-path="url(#clip0_862_43)">
<path d="M17.5996 30.8954L20.0377 17.1812H23.8472L21.4853 30.8954H17.5996Z" fill="#3C58BF"/>
<path d="M17.5996 30.8954L20.7234 17.1812H23.8472L21.4853 30.8954H17.5996Z" fill="#293688"/>
<path d="M35.2763 17.3332C34.5144 17.0284 33.2953 16.7236 31.7715 16.7236C27.962 16.7236 25.2191 18.6284 25.2191 21.3713C25.2191 23.4284 27.1239 24.4951 28.6477 25.1808C30.1715 25.8665 30.6287 26.3236 30.6287 26.9332C30.6287 27.8474 29.4096 28.3046 28.343 28.3046C26.8191 28.3046 25.981 28.076 24.6858 27.5427L24.1525 27.3141L23.6191 30.4379C24.5334 30.8189 26.2096 31.1998 27.962 31.1998C32.0001 31.1998 34.6668 29.2951 34.6668 26.3998C34.6668 24.7998 33.6763 23.5808 31.3906 22.5903C30.0191 21.9046 29.181 21.5236 29.181 20.8379C29.181 20.2284 29.8668 19.6189 31.3906 19.6189C32.6858 19.6189 33.6001 19.8474 34.2858 20.1522L34.6668 20.3046L35.2763 17.3332Z" fill="#3C58BF"/>
<path d="M35.2763 17.3332C34.5144 17.0284 33.2953 16.7236 31.7715 16.7236C27.962 16.7236 25.9049 18.6284 25.9049 21.3713C25.9049 23.4284 27.1239 24.4951 28.6477 25.1808C30.1715 25.8665 30.6287 26.3236 30.6287 26.9332C30.6287 27.8474 29.4096 28.3046 28.343 28.3046C26.8191 28.3046 25.981 28.076 24.6858 27.5427L24.1525 27.3141L23.6191 30.4379C24.5334 30.8189 26.2096 31.1998 27.962 31.1998C32.0001 31.1998 34.6668 29.2951 34.6668 26.3998C34.6668 24.7998 33.6763 23.5808 31.3906 22.5903C30.0191 21.9046 29.181 21.5236 29.181 20.8379C29.181 20.2284 29.8668 19.6189 31.3906 19.6189C32.6858 19.6189 33.6001 19.8474 34.2858 20.1522L34.6668 20.3046L35.2763 17.3332Z" fill="#293688"/>
<path d="M41.83 17.1812C40.9157 17.1812 40.23 17.2573 39.8491 18.1716L34.1348 30.8954H38.2491L39.011 28.6097H43.8871L44.3443 30.8954H48.0014L44.8014 17.1812H41.83ZM40.0776 26.324C40.3062 25.6383 41.6014 22.2859 41.6014 22.2859C41.6014 22.2859 41.9062 21.4478 42.1348 20.9145L42.3633 22.2097C42.3633 22.2097 43.1252 25.6383 43.2776 26.4002H40.0776V26.324Z" fill="#3C58BF"/>
<path d="M42.7443 17.1812C41.83 17.1812 41.1443 17.2573 40.7633 18.1716L34.1348 30.8954H38.2491L39.011 28.6097H43.8871L44.3443 30.8954H48.0014L44.8014 17.1812H42.7443ZM40.0776 26.324C40.3824 25.5621 41.6014 22.2859 41.6014 22.2859C41.6014 22.2859 41.9062 21.4478 42.1348 20.9145L42.3633 22.2097C42.3633 22.2097 43.1252 25.6383 43.2776 26.4002H40.0776V26.324Z" fill="#293688"/>
<path d="M10.5912 26.7811L10.2103 24.8002C9.52457 22.5145 7.31505 20.0002 4.87695 18.7811L8.30552 30.9716H12.4198L18.5912 17.2573H14.477L10.5912 26.7811Z" fill="#3C58BF"/>
<path d="M10.5912 26.7811L10.2103 24.8002C9.52457 22.5145 7.31505 20.0002 4.87695 18.7811L8.30552 30.9716H12.4198L18.5912 17.2573H15.2389L10.5912 26.7811Z" fill="#293688"/>
<path d="M0 17.1812L0.685714 17.3335C5.5619 18.4764 8.91428 21.3716 10.2095 24.8002L8.83809 18.324C8.60952 17.4097 7.92381 17.1812 7.08571 17.1812H0Z" fill="#FFBC00"/>
<path d="M0 17.1812C4.87619 18.324 8.91428 21.2954 10.2095 24.724L8.91428 19.3145C8.68571 18.4002 7.92381 17.8669 7.08571 17.8669L0 17.1812Z" fill="#F7981D"/>
<path d="M0 17.1812C4.87619 18.324 8.91428 21.2954 10.2095 24.724L9.29524 21.7526C9.06667 20.8383 8.7619 19.924 7.69524 19.5431L0 17.1812Z" fill="#ED7C00"/>
<path d="M14.3998 26.3236L11.8093 23.7332L10.5902 26.6284L10.2855 24.7236C9.59977 22.4379 7.39024 19.9236 4.95215 18.7046L8.38072 30.8951H12.495L14.3998 26.3236Z" fill="#051244"/>
<path d="M21.4863 30.8949L18.2101 27.5425L17.6006 30.8949H21.4863Z" fill="#051244"/>
<path d="M30.2477 26.1714C30.5525 26.4761 30.7049 26.7047 30.6287 27.0095C30.6287 27.9238 29.4096 28.3809 28.3429 28.3809C26.8191 28.3809 25.981 28.1523 24.6858 27.619L24.1525 27.3904L23.6191 30.5142C24.5334 30.8952 26.2096 31.2761 27.962 31.2761C30.4001 31.2761 32.381 30.5904 33.5239 29.3714L30.2477 26.1714Z" fill="#051244"/>
<path d="M34.666 30.895H38.247L39.0089 28.6093H43.8851L44.3422 30.895H47.9994L46.7041 25.3331L42.1327 20.9141L42.3613 22.1331C42.3613 22.1331 43.1232 25.5617 43.2755 26.3236H40.0755C40.3803 25.5617 41.5993 22.2855 41.5993 22.2855C41.5993 22.2855 41.9041 21.4474 42.1327 20.9141" fill="#051244"/>
</g>
<defs>
<clipPath id="clip0_862_43">
<rect width="48" height="48" fill="white"/>
</clipPath>
</defs>
</svg>
