<svg width="32" height="33" viewBox="0 0 32 33" fill="none" xmlns="http://www.w3.org/2000/svg">
<g clip-path="url(#clip0_943_1971)">
<path d="M12.4962 9.31667H25.0674C25.3618 9.31667 25.6008 9.07827 25.6008 8.78333C25.6008 8.4884 25.3618 8.25 25.0674 8.25H12.4962C12.2018 8.25 11.9629 8.4884 11.9629 8.78333C11.9629 9.07827 12.2018 9.31667 12.4962 9.31667Z" fill="black"/>
<path d="M12.4962 17.3167H25.0674C25.3618 17.3167 25.6008 17.0783 25.6008 16.7833C25.6008 16.4884 25.3618 16.25 25.0674 16.25H12.4962C12.2018 16.25 11.9629 16.4884 11.9629 16.7833C11.9629 17.0783 12.2018 17.3167 12.4962 17.3167Z" fill="black"/>
<path d="M12.4962 25.3167H25.0674C25.3618 25.3167 25.6008 25.0783 25.6008 24.7833C25.6008 24.4884 25.3618 24.25 25.0674 24.25H12.4962C12.2018 24.25 11.9629 24.4884 11.9629 24.7833C11.9629 25.0783 12.2018 25.3167 12.4962 25.3167Z" fill="black"/>
<path d="M31.4667 0.25H0.533333C0.238933 0.25 0 0.4884 0 0.783333V31.7167C0 32.0116 0.238933 32.25 0.533333 32.25H31.4667C31.7611 32.25 32 32.0116 32 31.7167V0.783333C32 0.4884 31.7611 0.25 31.4667 0.25ZM30.9333 31.1833H1.06667V1.31667H30.9333V31.1833Z" fill="black"/>
<path d="M6.66772 10.1028L7.96265 9.42177L9.25759 10.1028L9.01065 8.6607L10.0581 7.63883L8.61012 7.4287L7.96265 6.1167L7.31519 7.4287L5.86719 7.63883L6.91519 8.6607L6.66772 10.1028Z" fill="black"/>
<path d="M6.66772 18.147L7.96265 17.466L9.25759 18.147L9.01065 16.7049L10.0581 15.6836L8.61012 15.4729L7.96265 14.1609L7.31519 15.4729L5.86719 15.6836L6.91519 16.7049L6.66772 18.147Z" fill="black"/>
<path d="M6.66772 26.3834L7.96265 25.7023L9.25759 26.3834L9.01065 24.9412L10.0581 23.9199L8.61012 23.7092L7.96265 22.3972L7.31519 23.7092L5.86719 23.9199L6.91519 24.9412L6.66772 26.3834Z" fill="black"/>
</g>
<defs>
<clipPath id="clip0_943_1971">
<rect width="32" height="32" fill="white" transform="translate(0 0.25)"/>
</clipPath>
</defs>
</svg>
