<svg width="20" height="20" viewBox="0 0 20 20" fill="none" xmlns="http://www.w3.org/2000/svg">
<rect width="20" height="20" rx="10" fill="#E3E3E3"/>
<path d="M9.00128 8.888C10.2093 8.936 11.0933 9.2 11.6533 9.68C12.2213 10.16 12.5053 10.812 12.5053 11.636C12.5053 12.004 12.4413 12.344 12.3133 12.656C12.1933 12.968 12.0053 13.236 11.7493 13.46C11.5013 13.684 11.1853 13.86 10.8013 13.988C10.4173 14.116 9.96128 14.18 9.43328 14.18C9.22528 14.18 9.01328 14.164 8.79728 14.132C8.58128 14.1 8.38128 14.06 8.19728 14.012C8.01328 13.964 7.84928 13.916 7.70528 13.868C7.56128 13.82 7.45728 13.78 7.39328 13.748L7.60928 12.776C7.74528 12.84 7.96528 12.924 8.26928 13.028C8.58128 13.132 8.96128 13.184 9.40928 13.184C9.76928 13.184 10.0693 13.144 10.3093 13.064C10.5573 12.984 10.7573 12.876 10.9093 12.74C11.0613 12.604 11.1693 12.448 11.2333 12.272C11.3053 12.088 11.3413 11.896 11.3413 11.696C11.3413 11.392 11.2893 11.124 11.1853 10.892C11.0813 10.652 10.8973 10.452 10.6333 10.292C10.3693 10.132 10.0173 10.012 9.57728 9.932C9.13728 9.844 8.58128 9.8 7.90928 9.8C7.95728 9.408 7.99328 9.04 8.01728 8.696C8.04928 8.352 8.07728 8.016 8.10128 7.688C8.12528 7.36 8.14528 7.036 8.16128 6.716C8.17728 6.388 8.19328 6.044 8.20928 5.684H12.2173V6.632H9.18128C9.17328 6.752 9.16128 6.916 9.14528 7.124C9.12928 7.324 9.11328 7.536 9.09728 7.76C9.08128 7.976 9.06528 8.188 9.04928 8.396C9.03328 8.604 9.01728 8.768 9.00128 8.888Z" fill="black"/>
</svg>
