<svg width="20" height="20" viewBox="0 0 20 20" fill="none" xmlns="http://www.w3.org/2000/svg">
<rect width="20" height="20" rx="10" fill="#E3E3E3"/>
<path d="M8.56928 14C8.61728 13.36 8.72928 12.688 8.90528 11.984C9.08928 11.272 9.31328 10.584 9.57728 9.92C9.84128 9.248 10.1293 8.628 10.4413 8.06C10.7613 7.484 11.0733 7.016 11.3773 6.656H7.33328V5.684H12.6253V6.608C12.3613 6.912 12.0693 7.332 11.7493 7.868C11.4293 8.396 11.1253 8.992 10.8373 9.656C10.5573 10.312 10.3133 11.016 10.1053 11.768C9.90528 12.512 9.78128 13.256 9.73328 14H8.56928Z" fill="black"/>
</svg>
