<svg width="20" height="20" viewBox="0 0 20 20" fill="none" xmlns="http://www.w3.org/2000/svg">
<rect width="20" height="20" rx="10" fill="url(#paint0_linear_943_2024)"/>
<path d="M12.2173 7.808C12.2173 8.096 12.1573 8.376 12.0373 8.648C11.9253 8.912 11.7733 9.176 11.5813 9.44C11.3893 9.696 11.1733 9.952 10.9333 10.208C10.6933 10.456 10.4533 10.7 10.2133 10.94C10.0773 11.076 9.91728 11.236 9.73328 11.42C9.55728 11.604 9.38928 11.796 9.22928 11.996C9.06928 12.196 8.93328 12.388 8.82128 12.572C8.71728 12.756 8.66528 12.916 8.66528 13.052H12.4933V14H7.45328C7.44528 13.952 7.44128 13.904 7.44128 13.856C7.44128 13.808 7.44128 13.764 7.44128 13.724C7.44128 13.348 7.50128 13 7.62128 12.68C7.74928 12.352 7.91328 12.044 8.11328 11.756C8.31328 11.468 8.53728 11.196 8.78528 10.94C9.03328 10.684 9.27728 10.436 9.51728 10.196C9.71728 10.004 9.90528 9.816 10.0813 9.632C10.2653 9.44 10.4253 9.252 10.5613 9.068C10.7053 8.876 10.8173 8.68 10.8973 8.48C10.9853 8.28 11.0293 8.068 11.0293 7.844C11.0293 7.604 10.9893 7.4 10.9093 7.232C10.8373 7.064 10.7373 6.924 10.6093 6.812C10.4813 6.7 10.3293 6.62 10.1533 6.572C9.98528 6.516 9.80528 6.488 9.61328 6.488C9.38128 6.488 9.16928 6.52 8.97728 6.584C8.78528 6.648 8.61328 6.724 8.46128 6.812C8.30928 6.892 8.18128 6.98 8.07728 7.076C7.97328 7.164 7.89328 7.232 7.83728 7.28L7.28528 6.488C7.35728 6.408 7.46528 6.312 7.60928 6.2C7.75328 6.08 7.92528 5.968 8.12528 5.864C8.32528 5.76 8.54928 5.672 8.79728 5.6C9.04528 5.528 9.31328 5.492 9.60128 5.492C10.4733 5.492 11.1253 5.696 11.5573 6.104C11.9973 6.504 12.2173 7.072 12.2173 7.808Z" fill="white"/>
<defs>
<linearGradient id="paint0_linear_943_2024" x1="20" y1="20" x2="0.18868" y2="20" gradientUnits="userSpaceOnUse">
<stop stop-color="#8EE901"/>
<stop offset="1" stop-color="#4F9C2C"/>
</linearGradient>
</defs>
</svg>
