<svg width="28" height="28" viewBox="0 0 28 28" fill="none" xmlns="http://www.w3.org/2000/svg">
<g clip-path="url(#clip0_863_1094)">
<path d="M14 28C21.732 28 28 21.732 28 14C28 6.26801 21.732 0 14 0C6.26801 0 0 6.26801 0 14C0 21.732 6.26801 28 14 28Z" fill="#4D76A1"/>
<path fill-rule="evenodd" clip-rule="evenodd" d="M13.4717 20.1404H14.5705C14.5705 20.1404 14.9024 20.1039 15.0719 19.9213C15.2278 19.7536 15.2229 19.4386 15.2229 19.4386C15.2229 19.4386 15.2014 17.9642 15.8857 17.7471C16.5603 17.5332 17.4265 19.1721 18.3446 19.8022C19.0389 20.2791 19.5665 20.1746 19.5665 20.1746L22.0215 20.1404C22.0215 20.1404 23.3057 20.0613 22.6968 19.0515C22.6469 18.9689 22.3421 18.3046 20.8715 16.9395C19.3322 15.5107 19.5383 15.7418 21.3926 13.2704C22.5218 11.7653 22.9733 10.8464 22.8323 10.4528C22.6978 10.078 21.8672 10.1771 21.8672 10.1771L19.1031 10.1943C19.1031 10.1943 18.8982 10.1663 18.7462 10.2572C18.5977 10.3463 18.5021 10.5539 18.5021 10.5539C18.5021 10.5539 18.0646 11.7186 17.4811 12.7091C16.2503 14.7992 15.7582 14.9095 15.557 14.7798C15.0891 14.4773 15.2059 13.5646 15.2059 12.9163C15.2059 10.8908 15.5131 10.0463 14.6077 9.82768C14.3072 9.75506 14.0861 9.70714 13.3177 9.69941C12.3314 9.68917 11.4966 9.7024 11.024 9.93399C10.7095 10.088 10.4669 10.4311 10.6147 10.4508C10.7973 10.4753 11.2111 10.5624 11.4305 10.8611C11.7137 11.2464 11.7038 12.1119 11.7038 12.1119C11.7038 12.1119 11.8665 14.4963 11.3237 14.7925C10.9511 14.9956 10.44 14.5809 9.34264 12.6847C8.78038 11.7134 8.35587 10.6398 8.35587 10.6398C8.35587 10.6398 8.27401 10.4391 8.12802 10.3318C7.95083 10.2018 7.70326 10.1603 7.70326 10.1603L5.07661 10.1776C5.07661 10.1776 4.6823 10.1885 4.53755 10.36C4.40878 10.5125 4.52732 10.8279 4.52732 10.8279C4.52732 10.8279 6.58372 15.639 8.91215 18.0635C11.0472 20.2864 13.4717 20.1404 13.4717 20.1404Z" fill="white"/>
</g>
<defs>
<clipPath id="clip0_863_1094">
<rect width="28" height="28" fill="white"/>
</clipPath>
</defs>
</svg>
