<svg width="28" height="28" viewBox="0 0 28 28" fill="none" xmlns="http://www.w3.org/2000/svg">
<g clip-path="url(#clip0_863_1085)">
<path d="M14.0009 27.9998C21.7328 27.9998 28.0007 21.7318 28.0007 13.9999C28.0007 6.26796 21.7328 0 14.0009 0C6.26893 0 0.000976562 6.26796 0.000976562 13.9999C0.000976562 21.7318 6.26893 27.9998 14.0009 27.9998Z" fill="#55ACEE"/>
<path d="M22.5755 10.0612C21.9755 10.3272 21.3301 10.5071 20.6533 10.5875C21.3444 10.1735 21.8747 9.51839 22.125 8.73651C21.4784 9.12009 20.7619 9.39835 20 9.54834C19.3896 8.89823 18.5198 8.49194 17.5568 8.49194C15.709 8.49194 14.2104 9.99056 14.2104 11.8383C14.2104 12.1006 14.2401 12.3559 14.2975 12.601C11.5164 12.4615 9.0505 11.1293 7.3999 9.10412C7.11191 9.59825 6.9467 10.1735 6.9467 10.7867C6.9467 11.9474 7.53791 12.9721 8.43533 13.572C7.88704 13.5548 7.3707 13.4043 6.91975 13.153C6.9195 13.1672 6.9195 13.1814 6.9195 13.1954C6.9195 14.8168 8.07347 16.1692 9.60402 16.4764C9.32352 16.5533 9.02729 16.5939 8.72257 16.5939C8.50645 16.5939 8.29707 16.5732 8.09293 16.5343C8.51868 17.8635 9.75426 18.831 11.2189 18.8582C10.0734 19.7559 8.63074 20.2907 7.06249 20.2907C6.79297 20.2907 6.52594 20.275 6.26465 20.2438C7.74479 21.1936 9.5042 21.7474 11.3939 21.7474C17.549 21.7474 20.9151 16.6483 20.9151 12.2259C20.9151 12.0809 20.9119 11.9364 20.9054 11.7931C21.5597 11.3215 22.127 10.7323 22.5755 10.0612Z" fill="#F1F2F2"/>
</g>
<defs>
<clipPath id="clip0_863_1085">
<rect width="28" height="28" fill="white"/>
</clipPath>
</defs>
</svg>
