<svg width="28" height="28" viewBox="0 0 28 28" fill="none" xmlns="http://www.w3.org/2000/svg">
<g clip-path="url(#clip0_863_1082)">
<circle cx="14" cy="14" r="14" fill="#4CAF50"/>
<path d="M20.6756 16.4001C20.6756 16.4001 19.2465 15.7001 18.3516 15.2335C17.339 14.712 16.149 15.6885 15.589 16.2438C14.7174 15.909 13.9214 15.4037 13.2475 14.7575C12.6011 14.0837 12.0958 13.2876 11.7611 12.416C12.3165 11.8548 13.2906 10.666 12.7715 9.65332C12.3106 8.75732 11.6048 7.32932 11.6048 7.32818C11.5058 7.13163 11.3046 7.00754 11.0845 7.00732H9.91781C8.21878 7.30078 6.98345 8.78325 7.00116 10.5073C7.00116 12.339 9.19331 15.8577 10.6715 17.337C12.1497 18.8163 15.6684 21.0073 17.5012 21.0073C19.2252 21.025 20.7077 19.7897 21.0012 18.0907V16.924C21.0013 16.7016 20.8751 16.4984 20.6756 16.4001Z" fill="#FAFAFA"/>
</g>
<defs>
<clipPath id="clip0_863_1082">
<rect width="28" height="28" fill="white"/>
</clipPath>
</defs>
</svg>
