<svg width="28" height="28" viewBox="0 0 28 28" fill="none" xmlns="http://www.w3.org/2000/svg">
<g clip-path="url(#clip0_863_1075)">
<path d="M0 14C0 21.732 6.26801 28 14 28C21.732 28 28 21.732 28 14C28 6.26801 21.732 0 14 0C6.26801 0 0 6.26801 0 14Z" fill="#7D3DAF"/>
<path d="M18.0891 21.4498C17.8116 21.3656 17.5471 21.309 17.3015 21.207C14.7562 20.1511 12.4138 18.7887 10.5583 16.7004C9.50313 15.5128 8.67727 14.1721 7.97914 12.7533C7.64809 12.0804 7.36909 11.3812 7.08472 10.6865C6.82542 10.0531 7.20735 9.39861 7.60952 8.92131C7.98689 8.47337 8.47249 8.13056 8.99838 7.87792C9.40885 7.68071 9.81376 7.7944 10.1135 8.14232C10.7616 8.89451 11.3569 9.68517 11.8389 10.5571C12.1353 11.0934 12.054 11.7489 11.5168 12.1139C11.3862 12.2026 11.2673 12.3067 11.1456 12.4069C11.039 12.4947 10.9386 12.5834 10.8655 12.7023C10.7318 12.9198 10.7254 13.1764 10.8115 13.4129C11.474 15.2335 12.5906 16.6491 14.423 17.4116C14.7162 17.5336 15.0107 17.6757 15.3485 17.6363C15.9142 17.5702 16.0974 16.9497 16.4938 16.6254C16.8813 16.3086 17.3765 16.3044 17.7939 16.5685C18.2114 16.8328 18.6161 17.1164 19.0184 17.4031C19.4132 17.6844 19.8064 17.9597 20.1706 18.2804C20.5208 18.5889 20.6415 18.9935 20.4443 19.4121C20.0832 20.1787 19.5579 20.8164 18.8 21.2235C18.586 21.3383 18.3305 21.3755 18.0891 21.4498C17.8116 21.3655 18.3305 21.3755 18.0891 21.4498Z" fill="white"/>
<path d="M14.1686 7.00138C17.4978 7.09466 20.2322 9.30409 20.8182 12.5955C20.918 13.1563 20.9536 13.7297 20.998 14.2989C21.0167 14.5383 20.8811 14.7658 20.6227 14.7689C20.3558 14.7721 20.2358 14.5488 20.2184 14.3095C20.1842 13.8357 20.1604 13.3599 20.0951 12.8901C19.7504 10.41 17.7729 8.35824 15.3043 7.91796C14.9329 7.85168 14.5527 7.83426 14.1764 7.79479C13.9385 7.7698 13.627 7.7554 13.5743 7.45972C13.5301 7.21182 13.7393 7.01442 13.9754 7.00175C14.0396 6.99819 14.1041 7.00111 14.1686 7.00138C17.4978 7.09466 14.1041 7.00111 14.1686 7.00138Z" fill="white"/>
<path d="M19.2288 13.5601C19.2233 13.6017 19.2204 13.6994 19.1961 13.7915C19.1077 14.1257 18.601 14.1676 18.4843 13.8302C18.4497 13.7301 18.4445 13.6163 18.4443 13.5085C18.4432 12.8033 18.2899 12.0989 17.9343 11.4854C17.5688 10.8548 17.0104 10.3248 16.3554 10.004C15.9593 9.81008 15.531 9.68955 15.0969 9.6177C14.9072 9.58634 14.7154 9.56728 14.5248 9.54075C14.2938 9.50866 14.1704 9.36141 14.1813 9.13375C14.1915 8.9204 14.3475 8.76695 14.5799 8.78008C15.344 8.82348 16.0819 8.9886 16.7612 9.34828C18.1425 10.0798 18.9315 11.2344 19.1618 12.7762C19.1722 12.846 19.189 12.9152 19.1943 12.9853C19.2073 13.1585 19.2155 13.3318 19.2288 13.5601C19.2233 13.6017 19.2155 13.3318 19.2288 13.5601Z" fill="white"/>
<path d="M17.1572 13.4794C16.8787 13.4844 16.7296 13.3302 16.7009 13.0748C16.6809 12.8967 16.6652 12.7163 16.6227 12.5431C16.539 12.2019 16.3576 11.8857 16.0706 11.6767C15.9351 11.5779 15.7816 11.506 15.6208 11.4596C15.4164 11.4006 15.2043 11.4168 15.0004 11.3668C14.779 11.3126 14.6566 11.1333 14.6914 10.9256C14.7231 10.7366 14.907 10.5891 15.1135 10.6041C16.4042 10.6973 17.3267 11.3646 17.4584 12.8841C17.4677 12.9913 17.4786 13.1046 17.4548 13.2072C17.4141 13.3828 17.2841 13.4708 17.1572 13.4794C16.8787 13.4844 17.2841 13.4708 17.1572 13.4794Z" fill="white"/>
</g>
<defs>
<clipPath id="clip0_863_1075">
<rect width="28" height="28" fill="white"/>
</clipPath>
</defs>
</svg>
