<svg width="24" height="60" viewBox="0 0 24 60" fill="none" xmlns="http://www.w3.org/2000/svg">
<g clip-path="url(#clip0_863_1099)">
<path d="M4.84864 59.4333C4.75971 59.4333 4.67078 59.4058 4.59604 59.3512C4.46372 59.255 4.39756 59.0922 4.42549 58.9311L5.75336 51.1907L0.12957 45.7095C0.0127211 45.5953 -0.0293789 45.4247 0.0208834 45.2696C0.0715752 45.1141 0.206037 45.0007 0.367994 44.9771L8.13931 43.8477L11.6151 36.8054C11.6873 36.6585 11.8368 36.5657 12 36.5657C12.1637 36.5657 12.3132 36.6585 12.385 36.8054L15.8604 43.8477L23.6321 44.9771C23.7941 45.0007 23.9281 45.1137 23.9792 45.2696C24.0295 45.4247 23.9878 45.5957 23.8705 45.7095L18.2467 51.1916L19.5742 58.9315C19.6017 59.0926 19.5355 59.2554 19.4036 59.3517C19.2713 59.4487 19.0956 59.4612 18.9508 59.3843L12 55.7302L5.0484 59.3843C4.98567 59.4169 4.91694 59.4333 4.84864 59.4333ZM1.35262 45.7018L6.51459 50.7336C6.61555 50.832 6.66194 50.9746 6.63788 51.1138L5.41913 58.2184L11.8003 54.8641C11.9253 54.798 12.0744 54.798 12.2002 54.8641L18.5805 58.2184L17.3622 51.1138C17.3382 50.9746 17.3846 50.8324 17.4855 50.7336L22.6475 45.7018L15.5141 44.6652C15.3741 44.645 15.2533 44.5569 15.1906 44.4302L12 37.9666L8.80947 44.4306C8.74675 44.5574 8.62604 44.6454 8.48599 44.6656L1.35262 45.7018Z" fill="black"/>
</g>
<path fill-rule="evenodd" clip-rule="evenodd" d="M20 1H17V18H20V1ZM17 0H16V1V18V19H17H20H21V18V1V0H20H17ZM13 9.44441H10V18H13V9.44441ZM10 8.44441H9V9.44441V18V19H10H13H14V18V9.44441V8.44441H13H10ZM3 5.22216H6V18H3V5.22216ZM2 4.22216H3H6H7V5.22216V18V19H6H3H2V18V5.22216V4.22216Z" fill="black"/>
<defs>
<clipPath id="clip0_863_1099">
<rect width="24" height="24" fill="white" transform="translate(0 36)"/>
</clipPath>
</defs>
</svg>
